<svg width="40" height="40" viewBox="0 0 40 40" fill="none" xmlns="http://www.w3.org/2000/svg">
<path fill-rule="evenodd" clip-rule="evenodd" d="M28.8371 8.99476C28.6726 8.94211 28.5112 8.87121 28.3556 8.78135C27.1804 8.10286 26.7777 6.60015 27.4562 5.42496C27.7955 4.83736 28.3408 4.44291 28.9482 4.28016C29.5555 4.11741 30.225 4.18636 30.8126 4.52559L30.8126 4.52562C31.9878 5.20411 32.3904 6.70682 31.7119 7.88201C31.5423 8.1758 31.3212 8.42132 31.0666 8.61373C30.4375 9.08902 29.6039 9.24026 28.8371 8.99476ZM35.2239 9.90961C35.1404 10.0542 35.0523 10.1943 34.9598 10.3299L38.4652 16.4015C39.6725 18.4927 39.6725 21.0691 38.4652 23.1602L36.2038 27.0772C35.7214 27.9126 35.8615 28.9477 36.2989 29.8075C37.2649 31.7062 37.2811 34.0401 36.1366 36.0225C34.563 38.7479 31.317 39.9057 28.4434 38.9478C28.0329 38.8109 27.63 38.6309 27.2407 38.4061C26.5342 37.9983 25.9331 37.4781 25.4469 36.8811L25.4434 36.8768C24.9083 36.2217 24.1591 35.7255 23.3134 35.7255H16.7015C14.2869 35.7255 12.0556 34.4373 10.8483 32.3462L7.54238 26.6201C7.11977 25.8881 6.31617 25.4875 5.48191 25.3514C5.47954 25.351 5.47717 25.3506 5.47481 25.3502C5.40672 25.3392 5.3387 25.3272 5.27079 25.314C4.5805 25.1798 3.90035 24.9306 3.25721 24.5593C0.531787 22.9858 -0.625959 19.7397 0.33193 16.8662C0.468765 16.4557 0.648773 16.0528 0.873553 15.6634C0.87356 15.6634 0.873566 15.6634 0.873573 15.6634C1.12401 15.2296 1.4168 14.8356 1.74372 14.4834C2.91088 13.2263 4.51294 12.5034 6.17475 12.4153C7.1381 12.3642 8.10452 11.968 8.58687 11.1325L10.8483 7.21561C12.0556 5.12446 14.2869 3.83627 16.7015 3.83627H23.2159C23.517 3.83627 23.7882 3.66304 23.9406 3.40369L23.9443 3.39736C25.0779 1.43389 27.0796 0.28407 29.1846 0.152778C30.419 0.0757847 31.6889 0.34899 32.8402 1.0137C35.955 2.81201 37.0222 6.79485 35.2239 9.90961ZM13.0068 19.4341C12.9332 20.3713 12.6545 21.3072 12.1531 22.1756C12.1531 22.1757 12.1531 22.1757 12.1531 22.1757C12.0846 22.2943 12.013 22.4099 11.9384 22.5225C11.3318 23.4378 11.0747 24.6279 11.6237 25.5788L14.3602 30.3186C14.8432 31.155 15.7357 31.6703 16.7015 31.6703L24.0197 31.6703C24.0489 31.6703 24.0711 31.6966 24.0665 31.7255C24.1883 30.9721 24.4455 30.2276 24.8475 29.5268L24.857 29.5102C26.0209 27.4942 28.1 26.336 30.2665 26.2573C31.2495 26.2216 32.2426 25.8277 32.7345 24.9758L34.9533 21.1326C35.4362 20.2962 35.4362 19.2656 34.9533 18.4291L31.9005 13.1416C31.8011 12.9694 31.8836 12.7497 32.0675 12.674C30.7994 13.196 29.3769 13.3151 28.0115 12.9747C27.4348 12.831 26.8683 12.6053 26.3279 12.2933C24.5145 11.2463 23.3951 9.45881 23.1312 7.53328C23.1544 7.72031 23.0124 7.89148 22.8234 7.89148L16.7015 7.89148C15.7356 7.89148 14.8432 8.40676 14.3602 9.24321L12.1414 13.0863C11.6496 13.9382 11.805 14.9953 12.2655 15.8645C12.8433 16.9549 13.104 18.1956 13.0068 19.4341ZM32.6246 33.9949C32.1158 34.8763 31.1433 35.3231 30.1931 35.2052C30.1807 35.2037 30.1683 35.202 30.1559 35.2003C30.1287 35.1965 30.1016 35.1922 30.0744 35.1875C29.7981 35.1393 29.5253 35.0426 29.2683 34.8942C28.24 34.3005 27.8032 33.0758 28.1646 31.9916C28.2162 31.8367 28.2841 31.6847 28.3689 31.5378C29.0474 30.3626 30.5501 29.96 31.7253 30.6385C32.9005 31.317 33.3031 32.8197 32.6246 33.9949ZM7.73333 21.0528C6.99958 21.4715 6.06925 21.5003 5.28483 21.0474C4.50443 20.5968 4.06471 19.7828 4.05603 18.9426C4.05164 18.5175 4.15756 18.0858 4.38549 17.691C4.6116 17.2994 4.92925 16.9935 5.29581 16.7849C6.02918 16.3675 6.95833 16.3393 7.74187 16.7917C8.62325 17.3005 9.0701 18.273 8.9522 19.2232C8.9129 19.54 8.81085 19.8542 8.64123 20.148C8.55641 20.2949 8.45872 20.4298 8.3504 20.5519C8.17058 20.7547 7.96146 20.9226 7.73333 21.0528ZM20.7765 21.9088C21.9517 22.5872 23.4544 22.1846 24.1329 21.0094C24.8114 19.8342 24.4087 18.3315 23.2335 17.653C22.0583 16.9745 20.5556 17.3772 19.8771 18.5524C19.1987 19.7276 19.6013 21.2303 20.7765 21.9088ZM18.7489 25.4207C21.8636 27.219 25.8465 26.1518 27.6448 23.037C29.4431 19.9223 28.3759 15.9394 25.2611 14.1411C22.1464 12.3428 18.1635 13.41 16.3652 16.5248C14.5669 19.6395 15.6341 23.6224 18.7489 25.4207Z" fill="#0050FF"/>
</svg>
