<svg width="148" height="40" viewBox="0 0 148 40" fill="none" xmlns="http://www.w3.org/2000/svg">
<path d="M62.2907 4.89473V17.0153H58.9339V15.6185C58.0628 16.6699 56.8012 17.1955 55.149 17.1955C54.0076 17.1955 52.9712 16.9402 52.04 16.4296C51.1239 15.9189 50.4029 15.1905 49.8773 14.2443C49.3516 13.298 49.0887 12.2016 49.0887 10.955C49.0887 9.70842 49.3516 8.61201 49.8773 7.6658C50.4029 6.71958 51.1239 5.99114 52.04 5.48049C52.9712 4.96983 54.0076 4.7145 55.149 4.7145C56.696 4.7145 57.9051 5.20263 58.7762 6.17888V4.89473H62.2907ZM55.7573 14.3118C56.6435 14.3118 57.3794 14.0115 57.9652 13.4107C58.5509 12.7949 58.8438 11.9763 58.8438 10.955C58.8438 9.93371 58.5509 9.12267 57.9652 8.5219C57.3794 7.90611 56.6435 7.59821 55.7573 7.59821C54.8562 7.59821 54.1127 7.90611 53.5269 8.5219C52.9412 9.12267 52.6483 9.93371 52.6483 10.955C52.6483 11.9763 52.9412 12.7949 53.5269 13.4107C54.1127 14.0115 54.8562 14.3118 55.7573 14.3118Z" fill="white"/>
<path d="M69.8926 17.1955C68.5259 17.1955 67.4595 16.8351 66.6935 16.1142C65.9276 15.3782 65.5446 14.3419 65.5446 13.0052V0.298828H69.0591V12.8024C69.0591 13.3131 69.1867 13.7111 69.4421 13.9964C69.7124 14.2668 70.0879 14.402 70.5685 14.402C70.7487 14.402 70.929 14.3794 71.1092 14.3344C71.3045 14.2893 71.4547 14.2367 71.5598 14.1767L71.7175 16.9027C71.1317 17.0979 70.5235 17.1955 69.8926 17.1955Z" fill="white"/>
<path d="M77.791 17.1955C76.4242 17.1955 75.3579 16.8351 74.5919 16.1142C73.8259 15.3782 73.4429 14.3419 73.4429 13.0052V0.298828H76.9574V12.8024C76.9574 13.3131 77.0851 13.7111 77.3404 13.9964C77.6108 14.2668 77.9862 14.402 78.4669 14.402C78.6471 14.402 78.8273 14.3794 79.0075 14.3344C79.2028 14.2893 79.353 14.2367 79.4581 14.1767L79.6158 16.9027C79.0301 17.0979 78.4218 17.1955 77.791 17.1955Z" fill="white"/>
<path d="M88.7082 4.7145C90.2101 4.7145 91.4192 5.16508 92.3354 6.06624C93.2666 6.9674 93.7322 8.30412 93.7322 10.0764V17.0153H90.2176V10.6171C90.2176 9.65585 90.0074 8.94244 89.5868 8.47684C89.1663 7.99622 88.558 7.75591 87.762 7.75591C86.8758 7.75591 86.1699 8.03377 85.6443 8.58948C85.1186 9.13018 84.8557 9.94122 84.8557 11.0226V17.0153H81.3412V4.89473H84.698V6.31406C85.1636 5.8034 85.7419 5.4129 86.4328 5.14255C87.1237 4.85719 87.8821 4.7145 88.7082 4.7145Z" fill="white"/>
<path d="M109.351 4.89473V17.0153H105.994V15.6185C105.123 16.6699 103.861 17.1955 102.209 17.1955C101.068 17.1955 100.031 16.9402 99.1 16.4296C98.1839 15.9189 97.4629 15.1905 96.9372 14.2443C96.4116 13.298 96.1487 12.2016 96.1487 10.955C96.1487 9.70842 96.4116 8.61201 96.9372 7.6658C97.4629 6.71958 98.1839 5.99114 99.1 5.48049C100.031 4.96983 101.068 4.7145 102.209 4.7145C103.756 4.7145 104.965 5.20263 105.836 6.17888V4.89473H109.351ZM102.817 14.3118C103.703 14.3118 104.439 14.0115 105.025 13.4107C105.611 12.7949 105.904 11.9763 105.904 10.955C105.904 9.93371 105.611 9.12267 105.025 8.5219C104.439 7.90611 103.703 7.59821 102.817 7.59821C101.916 7.59821 101.173 7.90611 100.587 8.5219C100.001 9.12267 99.7083 9.93371 99.7083 10.955C99.7083 11.9763 100.001 12.7949 100.587 13.4107C101.173 14.0115 101.916 14.3118 102.817 14.3118Z" fill="white"/>
<path d="M57.1541 23.1882C58.2806 23.1882 59.3019 23.4511 60.218 23.9768C61.1492 24.4874 61.8777 25.2159 62.4034 26.1621C62.929 27.0933 63.1919 28.1822 63.1919 29.4288C63.1919 30.6754 62.929 31.7718 62.4034 32.718C61.8777 33.6492 61.1492 34.3776 60.218 34.9033C59.3019 35.414 58.2806 35.6693 57.1541 35.6693C55.6071 35.6693 54.3906 35.1812 53.5044 34.2049V39.8597H49.9899V23.3685H53.3467V24.7653C54.2178 23.7139 55.487 23.1882 57.1541 23.1882ZM56.5458 32.7856C57.447 32.7856 58.1829 32.4852 58.7537 31.8844C59.3394 31.2686 59.6323 30.4501 59.6323 29.4288C59.6323 28.4075 59.3394 27.5964 58.7537 26.9956C58.1829 26.3798 57.447 26.072 56.5458 26.072C55.6447 26.072 54.9012 26.3798 54.3155 26.9956C53.7447 27.5964 53.4594 28.4075 53.4594 29.4288C53.4594 30.4501 53.7447 31.2686 54.3155 31.8844C54.9012 32.4852 55.6447 32.7856 56.5458 32.7856Z" fill="white"/>
<path d="M68.9014 24.968C69.3219 24.3823 69.8851 23.9392 70.591 23.6388C71.312 23.3384 72.138 23.1882 73.0692 23.1882V26.4324C72.6787 26.4024 72.4159 26.3874 72.2807 26.3874C71.2744 26.3874 70.4859 26.6727 69.9152 27.2435C69.3444 27.7992 69.0591 28.6403 69.0591 29.7667V35.4891H65.5446V23.3685H68.9014V24.968Z" fill="white"/>
<path d="M81.0144 35.6693C79.7377 35.6693 78.5888 35.4064 77.5675 34.8808C76.5612 34.3401 75.7726 33.5966 75.2019 32.6504C74.6312 31.7042 74.3458 30.6303 74.3458 29.4288C74.3458 28.2272 74.6312 27.1533 75.2019 26.2071C75.7726 25.2609 76.5612 24.525 77.5675 23.9993C78.5888 23.4586 79.7377 23.1882 81.0144 23.1882C82.291 23.1882 83.4325 23.4586 84.4388 23.9993C85.4451 24.525 86.2336 25.2609 86.8043 26.2071C87.3751 27.1533 87.6604 28.2272 87.6604 29.4288C87.6604 30.6303 87.3751 31.7042 86.8043 32.6504C86.2336 33.5966 85.4451 34.3401 84.4388 34.8808C83.4325 35.4064 82.291 35.6693 81.0144 35.6693ZM81.0144 32.7856C81.9155 32.7856 82.6515 32.4852 83.2222 31.8844C83.808 31.2686 84.1008 30.4501 84.1008 29.4288C84.1008 28.4075 83.808 27.5964 83.2222 26.9956C82.6515 26.3798 81.9155 26.072 81.0144 26.072C80.1132 26.072 79.3698 26.3798 78.784 26.9956C78.1983 27.5964 77.9054 28.4075 77.9054 29.4288C77.9054 30.4501 78.1983 31.2686 78.784 31.8844C79.3698 32.4852 80.1132 32.7856 81.0144 32.7856Z" fill="white"/>
<path d="M97.5343 34.9033C97.1888 35.1586 96.7608 35.3539 96.2501 35.4891C95.7545 35.6092 95.2363 35.6693 94.6956 35.6693C93.2387 35.6693 92.1198 35.3013 91.3388 34.5654C90.5578 33.8294 90.1673 32.748 90.1673 31.3212V20.6875H93.6818V23.6388H96.6782V26.3423H93.6818V31.2761C93.6818 31.7868 93.8095 32.1848 94.0648 32.4702C94.3201 32.7405 94.6881 32.8757 95.1687 32.8757C95.7094 32.8757 96.19 32.7255 96.6106 32.4251L97.5343 34.9033Z" fill="white"/>
<path d="M104.913 35.6693C103.636 35.6693 102.487 35.4064 101.466 34.8808C100.459 34.3401 99.6709 33.5966 99.1002 32.6504C98.5295 31.7042 98.2441 30.6303 98.2441 29.4288C98.2441 28.2272 98.5295 27.1533 99.1002 26.2071C99.6709 25.2609 100.459 24.525 101.466 23.9993C102.487 23.4586 103.636 23.1882 104.913 23.1882C106.189 23.1882 107.331 23.4586 108.337 23.9993C109.343 24.525 110.132 25.2609 110.703 26.2071C111.273 27.1533 111.559 28.2272 111.559 29.4288C111.559 30.6303 111.273 31.7042 110.703 32.6504C110.132 33.5966 109.343 34.3401 108.337 34.8808C107.331 35.4064 106.189 35.6693 104.913 35.6693ZM104.913 32.7856C105.814 32.7856 106.55 32.4852 107.121 31.8844C107.706 31.2686 107.999 30.4501 107.999 29.4288C107.999 28.4075 107.706 27.5964 107.121 26.9956C106.55 26.3798 105.814 26.072 104.913 26.072C104.012 26.072 103.268 26.3798 102.682 26.9956C102.097 27.5964 101.804 28.4075 101.804 29.4288C101.804 30.4501 102.097 31.2686 102.682 31.8844C103.268 32.4852 104.012 32.7856 104.913 32.7856Z" fill="white"/>
<path d="M119.765 35.6693C118.474 35.6693 117.31 35.4064 116.273 34.8808C115.252 34.3401 114.449 33.5966 113.863 32.6504C113.292 31.7042 113.007 30.6303 113.007 29.4288C113.007 28.2272 113.292 27.1533 113.863 26.2071C114.449 25.2609 115.252 24.525 116.273 23.9993C117.31 23.4586 118.474 23.1882 119.765 23.1882C121.042 23.1882 122.153 23.4586 123.1 23.9993C124.061 24.525 124.759 25.2834 125.195 26.2747L122.469 27.7391C121.838 26.6277 120.929 26.072 119.743 26.072C118.827 26.072 118.068 26.3723 117.467 26.9731C116.867 27.5739 116.566 28.3924 116.566 29.4288C116.566 30.4651 116.867 31.2837 117.467 31.8844C118.068 32.4852 118.827 32.7856 119.743 32.7856C120.944 32.7856 121.853 32.2299 122.469 31.1184L125.195 32.6053C124.759 33.5666 124.061 34.3175 123.1 34.8582C122.153 35.3989 121.042 35.6693 119.765 35.6693Z" fill="white"/>
<path d="M132.832 35.6693C131.555 35.6693 130.406 35.4064 129.385 34.8808C128.379 34.3401 127.59 33.5966 127.019 32.6504C126.449 31.7042 126.163 30.6303 126.163 29.4288C126.163 28.2272 126.449 27.1533 127.019 26.2071C127.59 25.2609 128.379 24.525 129.385 23.9993C130.406 23.4586 131.555 23.1882 132.832 23.1882C134.108 23.1882 135.25 23.4586 136.256 23.9993C137.263 24.525 138.051 25.2609 138.622 26.2071C139.193 27.1533 139.478 28.2272 139.478 29.4288C139.478 30.6303 139.193 31.7042 138.622 32.6504C138.051 33.5966 137.263 34.3401 136.256 34.8808C135.25 35.4064 134.108 35.6693 132.832 35.6693ZM132.832 32.7856C133.733 32.7856 134.469 32.4852 135.04 31.8844C135.625 31.2686 135.918 30.4501 135.918 29.4288C135.918 28.4075 135.625 27.5964 135.04 26.9956C134.469 26.3798 133.733 26.072 132.832 26.072C131.931 26.072 131.187 26.3798 130.601 26.9956C130.016 27.5964 129.723 28.4075 129.723 29.4288C129.723 30.4501 130.016 31.2686 130.601 31.8844C131.187 32.4852 131.931 32.7856 132.832 32.7856Z" fill="white"/>
<path d="M146.175 35.6693C144.808 35.6693 143.742 35.3088 142.976 34.5879C142.21 33.852 141.827 32.8156 141.827 31.4789V18.7726H145.342V31.2761C145.342 31.7868 145.469 32.1848 145.725 32.4702C145.995 32.7405 146.37 32.8757 146.851 32.8757C147.031 32.8757 147.211 32.8532 147.392 32.8081C147.587 32.7631 147.737 32.7105 147.842 32.6504L148 35.3764C147.414 35.5717 146.806 35.6693 146.175 35.6693Z" fill="white"/>
<path fill-rule="evenodd" clip-rule="evenodd" d="M28.8371 8.99476C28.6726 8.94211 28.5112 8.87121 28.3556 8.78135C27.1804 8.10286 26.7777 6.60015 27.4562 5.42496C27.7955 4.83736 28.3408 4.44291 28.9482 4.28016C29.5555 4.11741 30.225 4.18636 30.8126 4.52559L30.8126 4.52562C31.9878 5.20411 32.3904 6.70682 31.7119 7.88201C31.5423 8.1758 31.3212 8.42132 31.0666 8.61373C30.4375 9.08902 29.6039 9.24026 28.8371 8.99476ZM35.2239 9.90961C35.1404 10.0542 35.0523 10.1943 34.9598 10.3299L38.4652 16.4015C39.6725 18.4927 39.6725 21.0691 38.4652 23.1602L36.2038 27.0772C35.7214 27.9126 35.8615 28.9477 36.2989 29.8075C37.2649 31.7062 37.2811 34.0401 36.1366 36.0225C34.563 38.7479 31.317 39.9057 28.4434 38.9478C28.0329 38.8109 27.63 38.6309 27.2407 38.4061C26.5342 37.9983 25.9331 37.4781 25.4469 36.8811L25.4434 36.8768C24.9083 36.2217 24.1591 35.7255 23.3134 35.7255H16.7015C14.2869 35.7255 12.0556 34.4373 10.8483 32.3462L7.54238 26.6201C7.11977 25.8881 6.31617 25.4875 5.48191 25.3514C5.47954 25.351 5.47717 25.3506 5.47481 25.3502C5.40672 25.3392 5.3387 25.3272 5.27079 25.314C4.5805 25.1798 3.90035 24.9306 3.25721 24.5593C0.531787 22.9858 -0.625959 19.7397 0.33193 16.8662C0.468765 16.4557 0.648773 16.0528 0.873553 15.6634C0.87356 15.6634 0.873566 15.6634 0.873573 15.6634C1.12401 15.2296 1.4168 14.8356 1.74372 14.4834C2.91088 13.2263 4.51294 12.5034 6.17475 12.4153C7.1381 12.3642 8.10452 11.968 8.58687 11.1325L10.8483 7.21561C12.0556 5.12446 14.2869 3.83627 16.7015 3.83627H23.2159C23.517 3.83627 23.7882 3.66304 23.9406 3.40369L23.9443 3.39736C25.0779 1.43389 27.0796 0.28407 29.1846 0.152778C30.419 0.0757847 31.6889 0.34899 32.8402 1.0137C35.955 2.81201 37.0222 6.79485 35.2239 9.90961ZM13.0068 19.4341C12.9332 20.3713 12.6545 21.3072 12.1531 22.1756C12.1531 22.1757 12.1531 22.1757 12.1531 22.1757C12.0846 22.2943 12.013 22.4099 11.9384 22.5225C11.3318 23.4378 11.0747 24.6279 11.6237 25.5788L14.3602 30.3186C14.8432 31.155 15.7357 31.6703 16.7015 31.6703L24.0197 31.6703C24.0489 31.6703 24.0711 31.6966 24.0665 31.7255C24.1883 30.9721 24.4455 30.2276 24.8475 29.5268L24.857 29.5102C26.0209 27.4942 28.1 26.336 30.2665 26.2573C31.2495 26.2216 32.2426 25.8277 32.7345 24.9758L34.9533 21.1326C35.4362 20.2962 35.4362 19.2656 34.9533 18.4291L31.9005 13.1416C31.8011 12.9694 31.8836 12.7497 32.0675 12.674C30.7994 13.196 29.3769 13.3151 28.0115 12.9747C27.4348 12.831 26.8683 12.6053 26.3279 12.2933C24.5145 11.2463 23.3951 9.45881 23.1312 7.53328C23.1544 7.72031 23.0124 7.89148 22.8234 7.89148L16.7015 7.89148C15.7356 7.89148 14.8432 8.40676 14.3602 9.24321L12.1414 13.0863C11.6496 13.9382 11.805 14.9953 12.2655 15.8645C12.8433 16.9549 13.104 18.1956 13.0068 19.4341ZM32.6246 33.9949C32.1158 34.8763 31.1433 35.3231 30.1931 35.2052C30.1807 35.2037 30.1683 35.202 30.1559 35.2003C30.1287 35.1965 30.1016 35.1922 30.0744 35.1875C29.7981 35.1393 29.5253 35.0426 29.2683 34.8942C28.24 34.3005 27.8032 33.0758 28.1646 31.9916C28.2162 31.8367 28.2841 31.6847 28.3689 31.5378C29.0474 30.3626 30.5501 29.96 31.7253 30.6385C32.9005 31.317 33.3031 32.8197 32.6246 33.9949ZM7.73333 21.0528C6.99958 21.4715 6.06925 21.5003 5.28483 21.0474C4.50443 20.5968 4.06471 19.7828 4.05603 18.9426C4.05164 18.5175 4.15756 18.0858 4.38549 17.691C4.6116 17.2994 4.92925 16.9935 5.29581 16.7849C6.02918 16.3675 6.95833 16.3393 7.74187 16.7917C8.62325 17.3005 9.0701 18.273 8.9522 19.2232C8.9129 19.54 8.81085 19.8542 8.64123 20.148C8.55641 20.2949 8.45872 20.4298 8.3504 20.5519C8.17058 20.7547 7.96146 20.9226 7.73333 21.0528ZM20.7765 21.9088C21.9517 22.5872 23.4544 22.1846 24.1329 21.0094C24.8114 19.8342 24.4087 18.3315 23.2335 17.653C22.0583 16.9745 20.5556 17.3772 19.8771 18.5524C19.1987 19.7276 19.6013 21.2303 20.7765 21.9088ZM18.7489 25.4207C21.8636 27.219 25.8465 26.1518 27.6448 23.037C29.4431 19.9223 28.3759 15.9394 25.2611 14.1411C22.1464 12.3428 18.1635 13.41 16.3652 16.5248C14.5669 19.6395 15.6341 23.6224 18.7489 25.4207Z" fill="#0050FF"/>
</svg>
